<?xml version="1.0" standalone="no"?>
<!DOCTYPE svg PUBLIC "-//W3C//DTD SVG 20010904//EN"
 "http://www.w3.org/TR/2001/REC-SVG-20010904/DTD/svg10.dtd">
<svg version="1.0" xmlns="http://www.w3.org/2000/svg"
 width="221.000000pt" height="221.000000pt" viewBox="0 0 221.000000 221.000000"
 preserveAspectRatio="xMidYMid meet">
<metadata>
Created by potrace 1.14, written by Peter Selinger 2001-2017
</metadata>
<g transform="translate(0.000000,221.000000) scale(0.100000,-0.100000)"
fill="#000000" stroke="none">
<path d="M1096 1824 c-8 -33 -46 -89 -127 -189 -69 -85 -99 -140 -99 -181 0
-32 0 -32 -35 -21 -25 7 -42 7 -60 -1 -29 -13 -153 -104 -154 -113 -1 -10 150
-119 165 -119 16 0 18 -14 4 -39 -5 -10 -12 -44 -14 -75 -3 -31 -8 -67 -12
-80 -3 -13 -2 -26 3 -29 12 -7 182 20 197 32 9 8 16 2 28 -22 8 -17 32 -52 53
-77 21 -25 42 -55 48 -67 10 -22 11 -22 35 15 14 20 39 52 55 71 16 19 33 47
39 62 9 27 10 27 42 14 17 -8 61 -17 96 -20 36 -4 72 -11 81 -16 15 -8 16 -5
9 24 -5 17 -11 58 -15 91 -3 32 -10 66 -15 76 -15 28 -12 37 13 44 12 3 47 26
77 51 30 26 63 50 73 54 16 6 6 16 -55 61 -91 67 -119 78 -157 63 -29 -10 -29
-10 -34 33 -4 39 -67 149 -102 179 -27 23 -103 133 -117 169 l-15 39 -7 -29z
m74 -165 c13 -19 35 -47 48 -64 35 -42 72 -124 72 -160 l0 -30 -21 40 c-12 22
-47 71 -78 110 -32 38 -63 85 -71 104 l-13 33 -19 -38 c-10 -22 -46 -73 -79
-114 -34 -41 -68 -88 -75 -105 l-13 -30 -1 33 c0 41 24 88 95 187 30 42 63 98
72 125 l17 48 21 -53 c12 -29 32 -67 45 -86z m16 -155 c60 -90 75 -143 54
-193 -13 -33 -94 -113 -104 -104 -11 11 -6 36 9 53 18 20 20 46 10 119 -13 92
-25 114 -20 36 l4 -70 -13 60 -13 60 -2 -58 c0 -32 -5 -56 -10 -53 -5 3 -7 19
-6 36 1 17 -1 33 -6 36 -5 3 -9 -14 -10 -38 0 -32 -2 -38 -8 -23 -5 11 -4 33
0 50 10 34 12 61 4 53 -6 -6 -12 -34 -20 -93 -4 -22 -7 -49 -9 -60 -2 -11 5
-33 16 -50 17 -28 24 -65 13 -65 -12 0 -77 66 -97 98 -34 55 -22 106 51 214
34 51 65 105 68 122 l6 30 14 -38 c7 -21 38 -76 69 -122z m342 -156 c38 -20
54 -38 34 -38 -5 0 -35 -18 -68 -39 -85 -56 -123 -64 -51 -10 32 24 54 45 47
47 -6 2 -26 -8 -46 -23 -50 -38 -87 -47 -116 -27 -44 31 -47 42 -22 80 13 19
24 39 24 43 0 20 64 7 103 -20 64 -43 85 -53 92 -41 4 6 2 9 -3 8 -11 -4 -121
74 -122 85 0 5 19 -3 43 -17 23 -14 61 -35 85 -48z m-782 12 c-38 -27 -66 -50
-62 -50 11 0 61 27 102 55 55 37 77 33 114 -22 l31 -46 -33 -28 c-40 -35 -70
-32 -130 11 -22 17 -46 30 -52 30 -11 0 54 -57 88 -77 16 -9 17 -12 5 -13 -9
0 -44 18 -79 41 -35 23 -73 45 -84 49 -20 8 -20 9 6 19 15 5 51 26 79 46 79
54 92 41 15 -15z m236 -108 c15 -14 49 -39 75 -57 l47 -32 66 45 c35 24 73 54
83 65 l18 21 34 -37 34 -37 -45 0 c-24 0 -44 -3 -44 -7 0 -5 15 -7 32 -7 46 2
76 -28 84 -85 4 -25 13 -59 21 -76 12 -26 13 -27 9 -5 -3 14 -8 52 -11 85 -6
72 8 47 29 -50 8 -33 17 -68 21 -77 7 -16 4 -17 -26 -4 -19 7 -56 17 -84 21
-27 4 -58 13 -70 21 -19 15 -19 15 5 10 14 -3 47 -8 73 -11 62 -7 54 10 -9 20
-87 13 -108 32 -106 100 0 30 0 30 -10 5 -5 -14 -7 -33 -4 -42 7 -28 -9 -30
-34 -3 -34 36 -46 31 -15 -7 19 -23 25 -39 22 -58 -6 -26 -77 -141 -77 -123 0
5 -16 33 -35 63 -39 61 -40 87 -5 125 31 33 14 32 -22 -2 l-28 -27 0 35 c0 52
-16 67 -18 17 -2 -51 -26 -74 -87 -83 -22 -4 -48 -9 -58 -12 -16 -4 -17 0 -12
34 17 97 50 142 95 130 11 -3 23 -1 26 4 3 5 -13 9 -36 9 l-41 0 27 35 c28 37
31 36 76 -3z m-146 -80 c-3 -5 -8 -31 -11 -58 -3 -27 -8 -60 -11 -73 -4 -19
-2 -22 13 -17 10 4 41 9 68 12 28 3 56 7 63 9 7 3 10 0 7 -5 -6 -10 -55 -25
-112 -35 -18 -3 -43 -9 -57 -15 -29 -11 -31 -8 -16 21 6 10 13 38 16 61 7 46
29 108 39 108 3 0 4 -4 1 -8z m246 -238 l22 -31 36 46 c20 25 42 55 48 66 10
18 11 18 12 2 0 -10 -20 -48 -44 -85 -23 -37 -46 -74 -49 -82 -5 -13 -6 -13
-6 0 -1 9 -21 47 -46 84 -25 38 -45 76 -45 84 0 14 11 1 72 -84z"/>
<path d="M1092 1460 c0 -14 2 -19 5 -12 2 6 2 18 0 25 -3 6 -5 1 -5 -13z"/>
<path d="M137 893 c-24 -24 20 -93 59 -93 8 0 14 -4 14 -9 0 -12 -57 6 -66 20
-3 5 -10 9 -15 9 -6 0 -7 -5 -3 -11 8 -14 77 -43 179 -77 116 -38 180 -75 179
-104 -3 -61 -9 -94 -18 -107 -8 -10 -6 -12 9 -10 12 3 20 13 21 27 1 12 2 36
3 53 1 39 19 34 44 -14 22 -44 28 -45 45 -12 6 14 18 36 25 50 17 35 24 31 30
-14 7 -59 54 -120 111 -150 47 -24 56 -25 247 -26 109 0 201 -4 205 -8 4 -4
14 -1 22 6 10 8 13 8 9 1 -4 -7 0 -15 9 -18 8 -3 12 -2 9 4 -9 14 9 12 23 -2
16 -16 15 -36 0 -35 -39 1 -52 -3 -40 -15 8 -8 15 -8 25 0 10 9 16 9 25 0 14
-14 27 13 19 36 -13 33 -119 62 -217 58 -347 -14 -387 4 -421 192 -7 36 -15
66 -18 66 -3 0 -22 -27 -41 -60 l-35 -59 -43 44 c-36 38 -201 138 -186 114 3
-5 0 -9 -5 -9 -6 0 -11 6 -11 14 0 9 -9 13 -25 12 -13 -2 -23 0 -21 3 3 3 -25
17 -60 31 -65 24 -81 43 -69 80 6 19 -5 27 -18 13z"/>
<path d="M167 877 c-4 -12 10 -14 43 -8 6 2 -23 21 -31 21 -4 0 -9 -6 -12 -13z"/>
<path d="M2176 732 c-3 -5 -2 -21 2 -36 7 -25 9 -26 21 -13 7 9 11 24 9 33 -3
20 -23 30 -32 16z"/>
<path d="M1368 708 c-53 -18 -45 -70 17 -108 40 -25 45 -47 13 -60 -18 -7 -28
-4 -45 16 -21 23 -23 23 -23 6 0 -28 20 -40 58 -37 42 4 62 21 62 56 0 22 -10
35 -46 59 -36 26 -43 34 -33 46 14 17 41 18 57 2 9 -9 12 -8 12 4 0 19 -37 27
-72 16z"/>
<path d="M84 688 c-4 -13 -21 -53 -39 -90 -18 -37 -30 -70 -28 -72 8 -8 33 6
28 14 -8 13 24 40 46 40 13 0 24 -10 30 -28 7 -21 16 -29 32 -28 12 1 23 6 23
11 2 12 -73 175 -80 175 -2 0 -8 -10 -12 -22z m19 -78 c4 -16 0 -20 -19 -20
-21 0 -23 2 -12 25 12 27 23 26 31 -5z"/>
<path d="M215 617 l0 -93 58 2 c65 1 62 0 72 34 l7 25 -17 -23 c-12 -16 -25
-22 -43 -20 -27 3 -27 4 -27 86 0 81 0 82 -25 82 -25 0 -25 -1 -25 -93z"/>
<path d="M720 634 c4 -67 8 -79 29 -92 31 -21 50 -24 89 -11 36 12 40 23 45
117 2 45 -1 62 -10 62 -9 0 -13 -20 -13 -74 0 -47 -5 -77 -12 -83 -25 -19 -46
-22 -65 -8 -15 11 -18 27 -18 89 0 74 -1 76 -25 76 -25 0 -25 0 -20 -76z"/>
<path d="M934 618 c0 -51 4 -92 9 -90 4 1 13 2 21 2 11 0 13 12 9 55 -3 30 -2
55 1 55 3 0 31 -24 62 -52 31 -29 59 -53 62 -53 4 0 7 39 8 88 0 84 0 87 -23
87 -20 0 -22 -4 -22 -47 1 -27 1 -53 0 -59 -1 -6 -28 15 -61 48 -33 32 -62 58
-64 58 -2 0 -3 -42 -2 -92z"/>
<path d="M1196 655 c-15 -33 -35 -76 -45 -95 -18 -35 -18 -36 0 -36 11 0 19 7
19 17 0 43 70 51 80 9 4 -15 13 -24 28 -25 13 -1 24 1 26 4 2 3 -16 47 -39 96
l-43 90 -26 -60z m24 -24 c0 -5 3 -16 6 -25 4 -12 0 -16 -16 -16 -16 0 -20 4
-16 16 3 9 6 20 6 25 0 5 5 9 10 9 6 0 10 -4 10 -9z"/>
<path d="M1514 623 c-21 -47 -41 -90 -42 -95 -8 -19 24 4 33 25 14 31 61 33
77 4 6 -12 11 -24 10 -27 -1 -3 9 -5 23 -5 14 0 24 5 24 10 -2 14 -78 175 -82
175 -2 0 -21 -39 -43 -87z m40 -31 c-25 -6 -32 2 -22 28 l9 25 14 -25 c12 -21
12 -25 -1 -28z"/>
<path d="M1675 617 l0 -93 54 3 c30 2 60 8 67 14 22 18 23 50 4 69 -11 11 -15
22 -10 25 17 11 11 54 -9 65 -11 5 -39 10 -63 10 l-43 0 0 -93z m77 58 c8 -18
8 -28 -1 -38 -9 -11 -8 -17 4 -27 18 -15 19 -42 3 -58 -29 -29 -37 -13 -37 68
0 81 10 100 31 55z"/>
<path d="M1902 690 c-31 -77 -64 -145 -75 -152 -8 -5 -5 -8 9 -8 13 0 25 10
32 25 16 34 61 31 73 -5 7 -19 16 -25 39 -25 28 -1 40 9 22 17 -4 2 -26 41
-49 88 -38 80 -41 83 -51 60z m17 -87 c1 -7 -8 -13 -19 -13 -23 0 -24 1 -8 35
11 24 13 25 19 8 4 -10 8 -24 8 -30z"/>
<path d="M2077 667 c-10 -23 -27 -61 -38 -85 -10 -23 -19 -47 -19 -53 0 -16
21 1 29 25 12 32 62 30 77 -3 8 -17 20 -26 38 -27 14 0 26 0 26 1 0 1 -15 33
-34 71 -18 38 -36 79 -40 92 -10 32 -19 27 -39 -21z m33 -69 c0 -5 -9 -8 -21
-8 -15 0 -19 4 -15 16 3 9 6 23 6 32 1 12 5 10 15 -8 8 -14 14 -28 15 -32z"/>
<path d="M383 612 c-13 -2 -23 -7 -23 -12 0 -9 65 -8 75 1 8 9 -25 15 -52 11z"/>
</g>
</svg>
